                 ETC1337 Presents "Blocking The Path To 9/11"

                                 DvdRip 2008

Requested by : Tpiom  

[****Reseed request turned into Reupload as all other torrents dead****]

Source provided by : GCJM




With Blocking the Path to 9/11, Citizens United Productions exposes the amazing untold story behind the public firestorm surrounding The Path to 9/11. It presents courageous interviews with the original film's writer/producer, director, and editors, as well as numerous terrorism experts and the head of the 9/11 Commission. This documentary sets the historical record straight with explosive new revelations. For all those who seek the truth about 9/11 and want to learn the real story behind this shocking saga, Blocking the Path to 9/11 is required viewing.



[SPECS]

Format                           : AVI
Format/Info                      : Audio Video Interleave
File size                        : 703 MiB
Duration                         : 1h 34mn
Overall bit rate                 : 1 045 Kbps
Writing application              : VirtualDubMod 1.5.10.2 (build 2540/release)
Writing library                  : VirtualDubMod build 2540/release

Video
ID                               : 0
Format                           : MPEG-4 Visual
Format profile                   : Advanced Simple@L5
Format settings, BVOP            : 2
Format settings, QPel            : No
Format settings, GMC             : No warppoints
Format settings, Matrix          : Default (H.263)
Muxing mode                      : Packed bitstream
Codec ID                         : XVID
Codec ID/Hint                    : XviD
Duration                         : 1h 34mn
Bit rate                         : 843 Kbps
Width                            : 512 pixels
Height                           : 288 pixels
Display aspect ratio             : 16:9
Frame rate                       : 23.976 fps
Color space                      : YUV
Chroma subsampling               : 4:2:0
Bit depth                        : 8 bits
Scan type                        : Progressive
Compression mode                 : Lossy
Bits/(Pixel*Frame)               : 0.239
Stream size                      : 568 MiB (81%)
Writing library                  : XviD 1.2.1 (UTC 2008-12-04)

Audio
ID                               : 1
Format                           : AC-3
Format/Info                      : Audio Coding 3
Mode extension                   : CM (complete main)
Codec ID                         : 2000
Duration                         : 1h 34mn
Bit rate mode                    : Constant
Bit rate                         : 192 Kbps
Channel(s)                       : 2 channels
Channel positions                : Front: L R
Sampling rate                    : 48.0 KHz
Bit depth                        : 16 bits
Compression mode                 : Lossy
Stream size                      : 129 MiB (18%)
Alignment                        : Split accross interleaves
Interleave, duration             : 42 ms (1.00 video frame)
Interleave, preload duration     : 500 ms








Have A Request? Ask me here:                 
http://forum.suprbay.org/member.php?action=register&referrer=118982



Please, SEED, COMMENT, And ENJOY

ETC1337	
